<svg width="40" height="40" xmlns="http://www.w3.org/2000/svg"><g fill="none" fill-rule="evenodd"><path d="M40 20c0 11.046-8.954 20-20 20S0 31.046 0 20 8.954 0 20 0s20 8.954 20 20" fill="#F48FB1"/><path d="M28.684 17.465a9.61 9.61 0 0 0-1.369-4.38c.532-.335.872-.565.872-.565S25.47 5.876 17.855 7.317c-5.5 1.04-7.686 5.425-7.385 8.946.301 3.522-2.21 14.851-2.21 14.851l6.693 1.734a4.647 4.647 0 0 0-.689 1.053l-.048.102a4.196 4.196 0 0 0-.212.572 4.53 4.53 0 0 0-.056.208c-.008.032-.019.062-.026.093l-1.314 3.707a19.939 19.939 0 0 0 10.582 1.16l-.1-2.771a4.681 4.681 0 0 0-2.007-4.96c.049-1.12.044-3.038.559-3.136 2.99-.572 5.08-2.51 6.18-5.247a1.508 1.508 0 1 0 .746-2.85 16.19 16.19 0 0 0 .116-3.314z" fill="#CB3A6B"/></g></svg>