<svg width="40" height="40" xmlns="http://www.w3.org/2000/svg" xmlns:xlink="http://www.w3.org/1999/xlink"><defs><path id="a" d="M0 0h40v40H0"/></defs><g fill="none" fill-rule="evenodd"><mask id="b" fill="#fff"><use xlink:href="#a"/></mask><path d="M40 20c0 11.045-8.954 20-20 20S0 31.045 0 20C0 8.954 8.954 0 20 0s20 8.954 20 20" fill="#81D4FA" mask="url(#b)"/><path d="M16.07 7.865c-3.796-.466-6.887-1.818-6.887-1.818s5.489 4.274 5.056 5.226c-.433.952-4.277 0-4.277 0s1.838 1.098 4.033 2.065a9.721 9.721 0 0 0-1.486 4.598 16.403 16.403 0 0 0 .117 3.352 1.525 1.525 0 1 0 .755 2.884c1.113 2.77 3.228 4.73 6.254 5.309.523.1.516 2.057.565 3.189a4.757 4.757 0 0 0-2.03 5.03l-.052 2.21a19.92 19.92 0 0 0 9.97-1.618l-.643-2.697a4.875 4.875 0 0 0-.1-.367l-.018-.058a4.811 4.811 0 0 0-.124-.337l-.025-.058a4.643 4.643 0 0 0-.155-.33l-.012-.022a4.657 4.657 0 0 0-.188-.324l-.006-.01a4.696 4.696 0 0 0-.217-.31l-.017-.023a4.773 4.773 0 0 0-2.856-1.774l.561-2.258s1.446-.982 2.964-2.585c.303.75.495 1.231.495 1.231s.59-.95 1.348-2.444c.273-.539.864-1.81.864-1.81s3.793-10.365.83-13.881c-2.574-3.053-10.924-1.904-14.72-2.37" fill="#2490BF"/></g></svg>